<mxfile host="app.diagrams.net" modified="2024-07-16T07:36:12.584Z" agent="Mozilla/5.0 (Windows NT 10.0; Win64; x64) AppleWebKit/537.36 (KHTML, like Gecko) Chrome/126.0.0.0 Safari/537.36" etag="4laPjANkxxEZoxyD0eA3" version="24.4.10" type="github">
  <diagram name="Trang-1" id="UOLTfeqR4QVjKMeuPEnQ">
    <mxGraphModel dx="724" dy="390" grid="1" gridSize="10" guides="1" tooltips="1" connect="1" arrows="1" fold="1" page="1" pageScale="1" pageWidth="827" pageHeight="1169" math="0" shadow="0">
      <root>
        <mxCell id="0" />
        <mxCell id="1" parent="0" />
        <mxCell id="J4r9XEHumVyY_k9KEv0b-67" value="" style="rounded=0;whiteSpace=wrap;html=1;" vertex="1" parent="1">
          <mxGeometry x="70" y="70" width="240" height="210" as="geometry" />
        </mxCell>
        <mxCell id="J4r9XEHumVyY_k9KEv0b-1" value="70" style="ellipse;whiteSpace=wrap;html=1;" vertex="1" parent="1">
          <mxGeometry x="80" y="80" width="60" height="50" as="geometry" />
        </mxCell>
        <mxCell id="J4r9XEHumVyY_k9KEv0b-8" value="100" style="ellipse;whiteSpace=wrap;html=1;" vertex="1" parent="1">
          <mxGeometry x="160" y="80" width="60" height="50" as="geometry" />
        </mxCell>
        <mxCell id="J4r9XEHumVyY_k9KEv0b-9" value="100" style="ellipse;whiteSpace=wrap;html=1;" vertex="1" parent="1">
          <mxGeometry x="240" y="80" width="60" height="50" as="geometry" />
        </mxCell>
        <mxCell id="J4r9XEHumVyY_k9KEv0b-10" value="" style="ellipse;whiteSpace=wrap;html=1;" vertex="1" parent="1">
          <mxGeometry x="320" y="80" width="60" height="50" as="geometry" />
        </mxCell>
        <mxCell id="J4r9XEHumVyY_k9KEv0b-11" value="" style="ellipse;whiteSpace=wrap;html=1;" vertex="1" parent="1">
          <mxGeometry x="400" y="80" width="60" height="50" as="geometry" />
        </mxCell>
        <mxCell id="J4r9XEHumVyY_k9KEv0b-12" value="" style="ellipse;whiteSpace=wrap;html=1;" vertex="1" parent="1">
          <mxGeometry x="480" y="80" width="60" height="50" as="geometry" />
        </mxCell>
        <mxCell id="J4r9XEHumVyY_k9KEv0b-43" value="70" style="ellipse;whiteSpace=wrap;html=1;" vertex="1" parent="1">
          <mxGeometry x="80" y="150" width="60" height="50" as="geometry" />
        </mxCell>
        <mxCell id="J4r9XEHumVyY_k9KEv0b-44" value="50" style="ellipse;whiteSpace=wrap;html=1;" vertex="1" parent="1">
          <mxGeometry x="160" y="150" width="60" height="50" as="geometry" />
        </mxCell>
        <mxCell id="J4r9XEHumVyY_k9KEv0b-45" value="100" style="ellipse;whiteSpace=wrap;html=1;" vertex="1" parent="1">
          <mxGeometry x="240" y="150" width="60" height="50" as="geometry" />
        </mxCell>
        <mxCell id="J4r9XEHumVyY_k9KEv0b-46" value="" style="ellipse;whiteSpace=wrap;html=1;" vertex="1" parent="1">
          <mxGeometry x="320" y="150" width="60" height="50" as="geometry" />
        </mxCell>
        <mxCell id="J4r9XEHumVyY_k9KEv0b-47" value="" style="ellipse;whiteSpace=wrap;html=1;" vertex="1" parent="1">
          <mxGeometry x="400" y="150" width="60" height="50" as="geometry" />
        </mxCell>
        <mxCell id="J4r9XEHumVyY_k9KEv0b-48" value="" style="ellipse;whiteSpace=wrap;html=1;" vertex="1" parent="1">
          <mxGeometry x="480" y="150" width="60" height="50" as="geometry" />
        </mxCell>
        <mxCell id="J4r9XEHumVyY_k9KEv0b-49" value="130" style="ellipse;whiteSpace=wrap;html=1;" vertex="1" parent="1">
          <mxGeometry x="80" y="220" width="60" height="50" as="geometry" />
        </mxCell>
        <mxCell id="J4r9XEHumVyY_k9KEv0b-50" value="150" style="ellipse;whiteSpace=wrap;html=1;" vertex="1" parent="1">
          <mxGeometry x="160" y="220" width="60" height="50" as="geometry" />
        </mxCell>
        <mxCell id="J4r9XEHumVyY_k9KEv0b-51" value="130" style="ellipse;whiteSpace=wrap;html=1;" vertex="1" parent="1">
          <mxGeometry x="240" y="220" width="60" height="50" as="geometry" />
        </mxCell>
        <mxCell id="J4r9XEHumVyY_k9KEv0b-52" value="" style="ellipse;whiteSpace=wrap;html=1;" vertex="1" parent="1">
          <mxGeometry x="320" y="220" width="60" height="50" as="geometry" />
        </mxCell>
        <mxCell id="J4r9XEHumVyY_k9KEv0b-53" value="" style="ellipse;whiteSpace=wrap;html=1;" vertex="1" parent="1">
          <mxGeometry x="400" y="220" width="60" height="50" as="geometry" />
        </mxCell>
        <mxCell id="J4r9XEHumVyY_k9KEv0b-54" value="" style="ellipse;whiteSpace=wrap;html=1;" vertex="1" parent="1">
          <mxGeometry x="480" y="220" width="60" height="50" as="geometry" />
        </mxCell>
        <mxCell id="J4r9XEHumVyY_k9KEv0b-55" value="" style="ellipse;whiteSpace=wrap;html=1;" vertex="1" parent="1">
          <mxGeometry x="80" y="290" width="60" height="50" as="geometry" />
        </mxCell>
        <mxCell id="J4r9XEHumVyY_k9KEv0b-56" value="" style="ellipse;whiteSpace=wrap;html=1;" vertex="1" parent="1">
          <mxGeometry x="160" y="290" width="60" height="50" as="geometry" />
        </mxCell>
        <mxCell id="J4r9XEHumVyY_k9KEv0b-57" value="" style="ellipse;whiteSpace=wrap;html=1;" vertex="1" parent="1">
          <mxGeometry x="240" y="290" width="60" height="50" as="geometry" />
        </mxCell>
        <mxCell id="J4r9XEHumVyY_k9KEv0b-58" value="" style="ellipse;whiteSpace=wrap;html=1;" vertex="1" parent="1">
          <mxGeometry x="320" y="290" width="60" height="50" as="geometry" />
        </mxCell>
        <mxCell id="J4r9XEHumVyY_k9KEv0b-59" value="" style="ellipse;whiteSpace=wrap;html=1;" vertex="1" parent="1">
          <mxGeometry x="400" y="290" width="60" height="50" as="geometry" />
        </mxCell>
        <mxCell id="J4r9XEHumVyY_k9KEv0b-60" value="" style="ellipse;whiteSpace=wrap;html=1;" vertex="1" parent="1">
          <mxGeometry x="480" y="290" width="60" height="50" as="geometry" />
        </mxCell>
        <mxCell id="J4r9XEHumVyY_k9KEv0b-61" value="" style="ellipse;whiteSpace=wrap;html=1;" vertex="1" parent="1">
          <mxGeometry x="80" y="360" width="60" height="50" as="geometry" />
        </mxCell>
        <mxCell id="J4r9XEHumVyY_k9KEv0b-62" value="" style="ellipse;whiteSpace=wrap;html=1;" vertex="1" parent="1">
          <mxGeometry x="160" y="360" width="60" height="50" as="geometry" />
        </mxCell>
        <mxCell id="J4r9XEHumVyY_k9KEv0b-63" value="" style="ellipse;whiteSpace=wrap;html=1;" vertex="1" parent="1">
          <mxGeometry x="240" y="360" width="60" height="50" as="geometry" />
        </mxCell>
        <mxCell id="J4r9XEHumVyY_k9KEv0b-64" value="" style="ellipse;whiteSpace=wrap;html=1;" vertex="1" parent="1">
          <mxGeometry x="320" y="360" width="60" height="50" as="geometry" />
        </mxCell>
        <mxCell id="J4r9XEHumVyY_k9KEv0b-65" value="" style="ellipse;whiteSpace=wrap;html=1;" vertex="1" parent="1">
          <mxGeometry x="400" y="360" width="60" height="50" as="geometry" />
        </mxCell>
        <mxCell id="J4r9XEHumVyY_k9KEv0b-66" value="" style="ellipse;whiteSpace=wrap;html=1;" vertex="1" parent="1">
          <mxGeometry x="480" y="360" width="60" height="50" as="geometry" />
        </mxCell>
      </root>
    </mxGraphModel>
  </diagram>
</mxfile>
